<?xml version="1.0" encoding="utf-8"?>
<!-- Generator: Adobe Illustrator 27.0.0, SVG Export Plug-In . SVG Version: 6.00 Build 0)  -->
<svg version="1.1" id="Layer_1" xmlns="http://www.w3.org/2000/svg" xmlns:xlink="http://www.w3.org/1999/xlink" x="0px" y="0px"
	 viewBox="0 0 221.36 47.56" style="enable-background:new 0 0 221.36 47.56;" xml:space="preserve">
<style type="text/css">
	.st0{fill:#602D86;}
	.st1{fill:none;stroke:#EE2A7B;stroke-width:0.2082;}
	.st2{fill:url(#SVGID_1_);}
	.st3{fill:#FFFFFF;}
	.st4{fill:#A7A9AC;}
</style>
<g>
	<path class="st0" d="M62.22,30.67c3.27,0,5.13,0.61,6.43,2.1c1.05,1.17,1.73,3.57,1.73,6.08c0,1.37-0.24,2.93-0.63,4.15
		c-0.61,1.95-1.78,3.13-3.69,3.64c-0.86,0.24-1.76,0.32-3.84,0.32h-6.91v-16.3H62.22z M58.78,44.06h3.44c1.47,0,2.59-0.37,3.15-1
		c0.73-0.83,1.2-2.49,1.2-4.23c0-1.93-0.56-3.67-1.42-4.42c-0.68-0.59-1.49-0.83-2.93-0.83h-3.44V44.06z"/>
	<path class="st0" d="M85.05,33.57h-4.52c-2.44,0.02-3.18,0.24-3.93,1.2c-0.49,0.68-0.61,1.1-0.71,2.64h9.16v2.91h-9.16
		c0.27,2.83,1.44,3.74,4.79,3.74h4.37v2.91h-4.52c-3.32,0-5.01-0.44-6.25-1.66c-1.49-1.44-2.32-3.79-2.32-6.57
		c0-2.83,0.88-5.06,2.61-6.62c1.2-1.08,2.35-1.44,4.62-1.44h5.86V33.57z"/>
	<path class="st0" d="M91.09,46.96h-3.3v-16.3h4.42l6.5,12.14V30.67h3.3v16.3h-4.25l-6.67-11.95V46.96z"/>
	<path class="st0" d="M103.71,33.57v-2.91h14.05v2.91h-5.38v13.39h-3.47V33.57H103.71z"/>
	<path class="st0" d="M122.7,30.67h3.98l6.74,16.3h-4.06l-1.56-3.79h-6.21l-1.56,3.79h-4.08L122.7,30.67z M122.38,40.27h4.64
		l-2.32-5.69L122.38,40.27z"/>
	<path class="st0" d="M138.49,30.67v9.14c0.1,2.71,0.15,2.88,0.81,3.54c0.66,0.56,1.44,0.71,3.57,0.71h3.32v2.91h-3.69
		c-3.2,0.05-4.28-0.22-5.67-1.3c-1.44-1.3-1.78-2.44-1.81-5.86v-9.14H138.49z"/>
	<path class="st0" d="M157.8,46.96h-3.47v-16.3h8.14c2.79,0,3.81,0.29,4.86,1.39c1,1.05,1.54,2.42,1.54,3.91
		c0,1.66-0.64,3.22-1.71,4.18c-0.95,0.86-1.88,1.12-3.79,1.12h-5.57V46.96z M162.52,38.36c0.88,0,1.42-0.12,1.78-0.42
		c0.46-0.37,0.76-1.17,0.76-2.1c0-1.05-0.41-1.81-1.15-2.1c-0.29-0.12-0.71-0.17-1.32-0.17h-4.79v4.79H162.52z"/>
	<path class="st0" d="M174.16,30.67v9.14c0.1,2.71,0.15,2.88,0.81,3.54c0.66,0.56,1.44,0.71,3.57,0.71h3.32v2.91h-3.69
		c-3.2,0.05-4.28-0.22-5.67-1.3c-1.44-1.3-1.78-2.44-1.81-5.86v-9.14H174.16z"/>
	<path class="st0" d="M189.58,30.67h3.98l6.74,16.3h-4.06l-1.56-3.79h-6.21l-1.56,3.79h-4.08L189.58,30.67z M189.26,40.27h4.64
		l-2.32-5.69L189.26,40.27z"/>
	<path class="st0" d="M205.37,46.96h-3.3v-16.3h4.42l6.5,12.14V30.67h3.3v16.3h-4.25l-6.67-11.95V46.96z"/>
</g>
<g>
	<path class="st0" d="M60.87,0.35v14.66c0.16,4.35,0.24,4.63,1.29,5.68c1.06,0.9,2.31,1.14,5.72,1.14h5.33v4.67H67.3
		c-5.14,0.08-6.86-0.35-9.1-2.08c-2.31-2.08-2.86-3.92-2.9-9.41V0.35H60.87z"/>
	<path class="st0" d="M76.88,0.35h5.57V26.5h-5.57V0.35z"/>
	<path class="st0" d="M88.17,0.35h14.78c2.35,0,4,0.27,5.06,0.78c2.08,1.06,3.45,3.49,3.45,6.08c0,2.7-1.61,5.29-3.8,6.23
		c2.51,1.14,3.8,3.21,3.8,6.12c0,3.02-1.33,5.25-3.65,6.27c-1.06,0.47-2.67,0.67-5.18,0.67H88.17V0.35z M101.3,11.09
		c1.57,0,2.12-0.12,2.78-0.63c0.74-0.59,1.22-1.57,1.22-2.59c0-1.02-0.43-1.84-1.14-2.31c-0.67-0.43-1.26-0.55-2.74-0.55h-7.68v6.08
		H101.3z M101.3,21.84c1.61,0,2.16-0.12,2.82-0.63c0.74-0.59,1.22-1.57,1.22-2.59c0-1.02-0.43-1.84-1.14-2.31
		c-0.67-0.43-1.29-0.55-2.78-0.55h-7.68v6.08H101.3z"/>
	<path class="st0" d="M135.58,5.02h-7.25c-3.92,0.04-5.1,0.39-6.31,1.92c-0.78,1.1-0.98,1.76-1.14,4.24h14.7v4.67h-14.7
		c0.43,4.55,2.31,6,7.68,6h7.02v4.67h-7.25c-5.33,0-8.04-0.71-10.04-2.67c-2.39-2.31-3.72-6.08-3.72-10.55
		c0-4.55,1.41-8.12,4.19-10.62c1.92-1.73,3.76-2.31,7.41-2.31h9.41V5.02z"/>
	<path class="st0" d="M145.93,26.5h-5.57V0.35h12.78c3.8,0,6.12,0.43,7.65,1.41c1.96,1.25,3.1,3.41,3.1,5.88
		c0,2.35-0.71,4.47-1.88,5.76c-0.86,0.9-1.61,1.37-3.1,1.88c3.06,0.82,4.55,3.18,4.74,7.25c0.2,2.43,0.28,2.98,0.63,3.96h-6.23
		c-0.2-0.59-0.23-0.78-0.31-1.33c-0.04-0.24-0.12-1.02-0.23-2.39c-0.39-4.59-2.28-6.23-7.1-6.19h-4.47V26.5z M153.74,11.92
		c1.37,0,2.2-0.2,2.74-0.59c0.78-0.55,1.25-1.69,1.25-3.02c0-1.53-0.67-2.63-1.84-3.06c-0.47-0.16-1.18-0.24-2.16-0.24h-7.8v6.9
		H153.74z"/>
	<path class="st0" d="M166.36,5.02V0.35h22.54v4.67h-8.63V26.5h-5.57V5.02H166.36z"/>
	<path class="st0" d="M190.64,0.35h6.51l6,10.19l6.35-10.19h6.59l-10.19,14.9V26.5h-5.57V15.05L190.64,0.35z"/>
</g>
<g>
	<path class="st1" d="M6.91,22.71"/>
	<g>
		<path class="st0" d="M46.96,39.96c0,3.86-3.13,6.99-6.99,6.99H7.34c-3.86,0-6.99-3.13-6.99-6.99V7.34c0-3.86,3.13-6.99,6.99-6.99
			h32.62c3.86,0,6.99,3.13,6.99,6.99V39.96z"/>
		<linearGradient id="SVGID_1_" gradientUnits="userSpaceOnUse" x1="23.9262" y1="0.1849" x2="23.2792" y2="32.3215">
			<stop  offset="2.512563e-03" style="stop-color:#602D86"/>
			<stop  offset="1" style="stop-color:#9E82B5"/>
		</linearGradient>
		<path class="st2" d="M46.96,19.77V7.34c0-3.86-3.13-6.99-6.99-6.99H7.35c-3.86,0-6.99,3.13-6.99,6.99v9.38
			c0,0,2.86,15.53,23.31,15.53C41.47,32.25,46.96,19.77,46.96,19.77z"/>
	</g>
	<g>
		<path class="st3" d="M17.47,37.85h15.96c2.78,0,4.62-0.49,5.22-0.86c0.99-0.62,1.84-2.37,2.55-3.53l0.84,0.23l-2.55,7.78H4.88
			v-0.67c1.51-0.04,2.39-0.24,2.88-0.67c0.49-0.45,0.73-1.3,0.73-2.56V9.51c0-1.26-0.24-2.1-0.73-2.56
			C7.27,6.53,6.39,6.33,4.88,6.29v-0.7h16.31v0.7c-1.51,0.03-2.49,0.24-2.98,0.67c-0.49,0.46-0.73,1.3-0.73,2.56V37.85z"/>
	</g>
	<g>
		<g>
			<polygon class="st3" points="23.54,30.61 25.91,29.39 30.91,41.42 			"/>
		</g>
		<g>
			<polygon class="st3" points="23.72,16.74 21.3,17.91 16.4,5.76 			"/>
		</g>
		<g>
			<polygon class="st3" points="30.77,23.58 29.35,21.34 41.4,16.44 			"/>
		</g>
		<g>
			<polygon class="st3" points="15.5,24.29 17.86,25.96 5.73,30.82 			"/>
		</g>
		<g>
			<polygon class="st4" points="17.86,25.96 23.6,23.65 13.89,46.97 			"/>
		</g>
		<g>
			<polygon class="st4" points="29.35,21.34 23.6,23.65 33.54,0.37 			"/>
		</g>
		<g>
			<polygon class="st4" points="25.91,29.39 23.6,23.65 46.85,33.51 			"/>
		</g>
		<g>
			<polygon class="st4" points="21.3,17.91 23.6,23.65 0.35,13.73 			"/>
		</g>
	</g>
	<g>
		<g>
			<polygon class="st3" points="29.92,18.48 29.07,22.71 41.41,16.43 			"/>
		</g>
		<g>
			<polygon class="st3" points="17.33,28.77 18.05,24.95 5.73,30.82 			"/>
		</g>
		<g>
			<polygon class="st3" points="28.77,29.96 24.41,29 30.9,41.41 			"/>
		</g>
		<g>
			<polygon class="st3" points="18.44,17.34 22.33,18.12 16.4,5.76 			"/>
		</g>
		<g>
			<polygon class="st3" points="29.35,21.34 23.6,23.65 46.86,33.51 			"/>
		</g>
		<g>
			<polygon class="st3" points="17.86,25.96 23.6,23.65 0.35,13.73 			"/>
		</g>
		<g>
			<polygon class="st3" points="25.91,29.39 23.6,23.65 13.89,46.96 			"/>
		</g>
		<g>
			<polygon class="st3" points="21.3,17.91 23.6,23.65 33.54,0.37 			"/>
		</g>
	</g>
</g>
<g>
	<path class="st0" d="M219.26,42.97c0.33,0,0.66,0.09,0.97,0.26c0.32,0.17,0.56,0.41,0.74,0.73c0.18,0.32,0.26,0.65,0.26,0.99
		c0,0.34-0.09,0.67-0.26,0.98c-0.17,0.31-0.42,0.56-0.73,0.73c-0.31,0.17-0.64,0.26-0.98,0.26s-0.67-0.09-0.98-0.26
		s-0.56-0.42-0.73-0.73c-0.17-0.31-0.26-0.64-0.26-0.98c0-0.34,0.09-0.67,0.27-0.99c0.18-0.32,0.42-0.56,0.74-0.73
		C218.6,43.05,218.93,42.97,219.26,42.97z M219.26,43.29c-0.28,0-0.55,0.07-0.81,0.21c-0.26,0.14-0.47,0.35-0.62,0.61
		c-0.15,0.26-0.22,0.54-0.22,0.83c0,0.28,0.07,0.56,0.22,0.82c0.15,0.26,0.35,0.46,0.61,0.61c0.26,0.15,0.54,0.22,0.82,0.22
		s0.56-0.07,0.82-0.22c0.26-0.15,0.47-0.35,0.61-0.61c0.15-0.26,0.22-0.53,0.22-0.82c0-0.29-0.07-0.56-0.22-0.83
		c-0.15-0.26-0.35-0.47-0.62-0.61C219.81,43.37,219.54,43.29,219.26,43.29z M218.39,46.04v-2.13h0.73c0.25,0,0.43,0.02,0.54,0.06
		c0.11,0.04,0.2,0.11,0.27,0.21s0.1,0.2,0.1,0.31c0,0.16-0.06,0.29-0.17,0.41c-0.11,0.12-0.26,0.18-0.44,0.19
		c0.08,0.03,0.14,0.07,0.18,0.11c0.09,0.08,0.19,0.22,0.31,0.42l0.26,0.42h-0.42l-0.19-0.34c-0.15-0.26-0.27-0.43-0.36-0.5
		c-0.06-0.05-0.15-0.07-0.28-0.07h-0.2v0.9H218.39z M218.74,44.84h0.42c0.2,0,0.33-0.03,0.41-0.09c0.07-0.06,0.11-0.14,0.11-0.24
		c0-0.06-0.02-0.12-0.05-0.17s-0.08-0.09-0.15-0.11c-0.06-0.02-0.18-0.04-0.34-0.04h-0.39V44.84z"/>
</g>
</svg>
