<?xml version="1.0" encoding="UTF-8"?>
<svg id="Layer_2" xmlns="http://www.w3.org/2000/svg" viewBox="0 0 56.04 56.04">
  <defs>
    <style>
      .cls-1 {
        fill: #fff;
      }

      .cls-2 {
        fill: #3352a3;
      }
    </style>
  </defs>
  <circle class="cls-1" cx="28.02" cy="28.02" r="24.7"/>
  <g>
    <path class="cls-1" d="M28.02,54.61c14.68,0,26.59-11.91,26.59-26.59S42.7,1.43,28.02,1.43,1.43,13.34,1.43,28.02s11.91,26.59,26.59,26.59"/>
    <path class="cls-2" d="M52.13,28.02c0-13.3-10.81-24.11-24.11-24.11S3.91,14.72,3.91,28.02s10.81,24.11,24.11,24.11,24.11-10.81,24.11-24.11M56.04,28.02c0,15.45-12.57,28.02-28.02,28.02S0,43.47,0,28.02,12.57,0,28.02,0s28.02,12.57,28.02,28.02M28.02,14.99c-1.44,0-2.6,1.17-2.6,2.6s1.17,2.61,2.6,2.61,2.61-1.17,2.61-2.61-1.17-2.6-2.61-2.6M29.97,28.02v13.03c0,1.08-.87,1.96-1.96,1.96s-1.95-.88-1.95-1.96v-13.03c0-1.08.87-1.96,1.95-1.96s1.96.88,1.96,1.96"/>
  </g>
</svg>
